<svg width="224" height="81" viewBox="0 0 224 81" fill="none" xmlns="http://www.w3.org/2000/svg">
<path d="M6.55 53.775L11 63.425L15.45 53.775H19.525V70H16.55V57.675L11.95 68.225H10.025L5.275 57.325V70H2.325V53.775H6.55ZM26.6756 53.775H29.6256V70H26.6756V53.775ZM39.9434 53.775L47.0934 65.275V53.775H50.0434V70H47.0434L39.6684 58.1V70H36.7184V53.775H39.9434ZM57.1633 53.775H67.6133V56.325H60.1133V60.6H67.1383V63.15H60.1133V67.425H67.6133V70H57.1633V53.775ZM82.8617 58.25C82.5951 56.8333 81.5951 56.125 79.8617 56.125C79.0117 56.125 78.3451 56.3 77.8617 56.65C77.3951 56.9833 77.1617 57.3917 77.1617 57.875C77.1617 58.3583 77.3117 58.7417 77.6117 59.025C77.9284 59.2917 78.4117 59.5417 79.0617 59.775L82.5867 61.15C83.7867 61.6167 84.7117 62.2083 85.3617 62.925C86.0117 63.625 86.3367 64.5083 86.3367 65.575C86.3367 67.0417 85.7867 68.2083 84.6867 69.075C83.5867 69.925 82.0201 70.35 79.9867 70.35C78.1867 70.35 76.7284 69.9083 75.6117 69.025C74.3617 68.0583 73.7034 66.6917 73.6367 64.925H76.5617C76.5617 66.2583 77.2534 67.1 78.6367 67.45C79.0534 67.5667 79.6034 67.625 80.2867 67.625C80.9701 67.625 81.6034 67.4583 82.1867 67.125C82.7701 66.775 83.0617 66.3167 83.0617 65.75C83.0617 65.1667 82.9034 64.725 82.5867 64.425C82.2701 64.1083 81.7534 63.8167 81.0367 63.55L77.8117 62.275C76.5617 61.7917 75.6034 61.225 74.9367 60.575C74.2701 59.925 73.9367 59.025 73.9367 57.875C73.9367 56.525 74.4617 55.4583 75.5117 54.675C76.5784 53.8583 78.0201 53.45 79.8367 53.45C81.6701 53.45 83.0784 53.875 84.0617 54.725C85.0617 55.5583 85.6367 56.7333 85.7867 58.25H82.8617ZM94.2541 53.775L97.8291 66.1L101.304 54.85H103.304L106.979 66.15L110.779 53.775H114.104L108.529 70H105.429L102.379 60.85L99.3541 70H96.2541L90.9541 53.775H94.2541ZM119.4 53.775H129.85V56.325H122.35V60.6H129.375V63.15H122.35V67.425H129.85V70H119.4V53.775ZM136.548 53.775H146.998V56.325H139.498V60.6H146.523V63.15H139.498V67.425H146.998V70H136.548V53.775ZM159.371 53.775C161.205 53.775 162.63 54.225 163.646 55.125C164.68 56.0083 165.196 57.2833 165.196 58.95C165.196 60.6 164.68 61.875 163.646 62.775C162.63 63.6583 161.205 64.1 159.371 64.1H156.621V70H153.646V53.775H159.371ZM159.371 61.525C160.288 61.525 160.98 61.2833 161.446 60.8C161.913 60.3167 162.146 59.7 162.146 58.95C162.146 58.1833 161.913 57.5583 161.446 57.075C160.98 56.575 160.288 56.325 159.371 56.325H156.621V61.525H159.371ZM170.723 53.775H181.173V56.325H173.673V60.6H180.698V63.15H173.673V67.425H181.173V70H170.723V53.775ZM199.946 58.75C199.946 59.9 199.621 60.8833 198.971 61.7C198.321 62.5167 197.388 63.0833 196.171 63.4L200.521 70H196.671L193.096 63.675H190.846V70H187.896V53.775H193.896C195.813 53.775 197.305 54.2333 198.371 55.15C199.421 56.0333 199.946 57.2333 199.946 58.75ZM193.621 61.7C194.705 61.7 195.521 61.4583 196.071 60.975C196.621 60.475 196.896 59.825 196.896 59.025C196.896 58.2083 196.646 57.5583 196.146 57.075C195.646 56.575 194.896 56.325 193.896 56.325H190.846V61.7H193.621Z" fill="#333333"/>
<g clip-path="url(#clip0)">
<path d="M119.877 17.6889H114.837C114.617 15.072 113.581 12.5872 111.873 10.5778L113.014 9.45333C113.121 9.35069 113.206 9.22796 113.265 9.09232C113.323 8.95668 113.354 8.81084 113.355 8.66331C113.356 8.51578 113.328 8.36952 113.271 8.23305C113.214 8.09659 113.131 7.97265 113.025 7.86848C112.92 7.7643 112.794 7.68198 112.656 7.6263C112.518 7.57063 112.37 7.54272 112.221 7.54421C112.072 7.54569 111.925 7.57654 111.788 7.63496C111.651 7.69338 111.527 7.77819 111.424 7.88444L110.287 9.00889C108.256 7.31836 105.745 6.2934 103.1 6.07556V1.11111C103.1 0.816426 102.982 0.533811 102.772 0.325437C102.561 0.117063 102.275 0 101.978 0C101.68 0 101.394 0.117063 101.184 0.325437C100.973 0.533811 100.855 0.816426 100.855 1.11111V6.09333C98.2183 6.31611 95.7168 7.34253 93.6948 9.03111L92.5584 7.90667C92.3469 7.70395 92.0634 7.59155 91.769 7.59366C91.4745 7.59577 91.1927 7.71223 90.9842 7.91795C90.7757 8.12368 90.6572 8.40221 90.6542 8.69354C90.6512 8.98488 90.7641 9.26572 90.9683 9.47556L92.1092 10.6044C90.4108 12.6079 89.3814 15.0829 89.1626 17.6889H84.1229C83.8251 17.6889 83.5395 17.806 83.3289 18.0143C83.1183 18.2227 83 18.5053 83 18.8C83 19.0947 83.1183 19.3773 83.3289 19.5857C83.5395 19.794 83.8251 19.9111 84.1229 19.9111H89.1626C89.3926 22.5177 90.4276 24.9911 92.1272 26.9956L90.9908 28.12C90.7818 28.3296 90.6646 28.6122 90.6646 28.9067C90.6646 29.2011 90.7818 29.4837 90.9908 29.6933C91.202 29.9012 91.4879 30.0179 91.7858 30.0179C92.0838 30.0179 92.3696 29.9012 92.5809 29.6933L93.7173 28.5689C95.743 30.2506 98.2428 31.2747 100.877 31.5022V36.4889C100.877 36.7836 100.995 37.0662 101.206 37.2746C101.417 37.4829 101.702 37.6 102 37.6C102.298 37.6 102.583 37.4829 102.794 37.2746C103.005 37.0662 103.123 36.7836 103.123 36.4889V31.5022C105.759 31.2794 108.261 30.253 110.283 28.5644L111.424 29.6933C111.528 29.7966 111.652 29.8785 111.788 29.9342C111.925 29.9899 112.071 30.0183 112.219 30.0178C112.366 30.0187 112.511 29.9904 112.647 29.9347C112.783 29.879 112.906 29.7969 113.009 29.6933C113.114 29.5901 113.197 29.4675 113.253 29.3325C113.31 29.1975 113.339 29.0528 113.339 28.9067C113.339 28.7605 113.31 28.6158 113.253 28.4808C113.197 28.3458 113.114 28.2232 113.009 28.12L111.873 26.9956C113.579 24.9949 114.617 22.5196 114.842 19.9111H119.877C120.175 19.9111 120.461 19.794 120.671 19.5857C120.882 19.3773 121 19.0947 121 18.8C121 18.5053 120.882 18.2227 120.671 18.0143C120.461 17.806 120.175 17.6889 119.877 17.6889ZM100.675 15.9111C100.539 16.2704 100.324 16.5959 100.047 16.8646C99.7703 17.1333 99.4372 17.3388 99.0714 17.4667C98.784 17.5733 98.4799 17.629 98.173 17.6311C97.4583 17.6311 96.7728 17.3502 96.2674 16.8501C95.762 16.35 95.478 15.6717 95.478 14.9644C95.4803 14.6608 95.5366 14.3599 95.6442 14.0756C95.7637 13.7088 95.9632 13.3726 96.2287 13.0907C96.4942 12.8088 96.8191 12.5882 97.1804 12.4444C97.489 12.3226 97.8184 12.2608 98.1506 12.2622C98.5045 12.2622 98.855 12.3312 99.1819 12.4652C99.5089 12.5992 99.806 12.7956 100.056 13.0433C100.307 13.2909 100.505 13.5849 100.64 13.9084C100.776 14.2319 100.846 14.5787 100.846 14.9289C100.855 15.2657 100.797 15.601 100.675 15.9156V15.9111Z" fill="#333333"/>
</g>
<defs>
<clipPath id="clip0">
<rect width="38" height="47" fill="white" transform="translate(83)"/>
</clipPath>
</defs>
</svg>
